<svg width="80" height="80" viewBox="0 0 80 80" fill="none" xmlns="http://www.w3.org/2000/svg">
<path d="M19.6839 0H5.86081C2.62397 0 0 2.62397 0 5.86081V74.1392C0 77.376 2.62397 80 5.8608 80H16.2164C18.1524 80 19.9635 79.0439 21.0557 77.4454L23.4914 73.8802C25.765 70.5523 30.6415 70.4593 33.0403 73.6982L34.9324 76.2528C36.0377 77.7452 37.785 78.6254 39.6421 78.6254H74.1392C77.376 78.6254 80 76.0014 80 72.7646V56.2639C80 53.9751 78.6676 51.8958 76.5882 50.9393L70.6238 48.196C66.6803 46.3821 66.0081 41.0603 69.3768 38.3229L77.8352 31.4498C79.2048 30.3369 80 28.6661 80 26.9013V5.86081C80 2.62397 77.376 0 74.1392 0H49.4536C47.9864 0 46.5726 0.550317 45.4915 1.54222L36.1594 10.1041C33.1075 12.9042 28.1931 11.7412 26.7197 7.87037L25.1613 3.77598C24.296 1.50259 22.1164 0 19.6839 0Z" fill="url(#paint0_angular_589_22931)"/>
<defs>
<radialGradient id="paint0_angular_589_22931" cx="0" cy="0" r="1" gradientUnits="userSpaceOnUse" gradientTransform="translate(19.3655 49.8557) rotate(59.0773) scale(54.1115 54.1115)">
<stop stop-color="#90509F"/>
<stop offset="0.52" stop-color="#E28BF8"/>
<stop offset="1" stop-color="#F0B8FE"/>
</radialGradient>
</defs>
</svg>
