<svg width="500" height="500" viewBox="0 0 500 500" fill="none" xmlns="http://www.w3.org/2000/svg">
<path d="M123.024 0H36.63C16.3998 0 0 16.3998 0 36.63V463.37C0 483.6 16.3998 500 36.63 500H101.353C113.453 500 124.772 494.024 131.598 484.034L145.134 464.22C159.808 442.742 191.569 442.975 205.925 464.667L218.447 483.587C225.231 493.836 236.702 500 248.993 500H463.37C483.6 500 500 483.6 500 463.37V351.65C500 337.345 491.673 324.349 478.677 318.371L441.399 301.225C416.752 289.888 412.551 256.627 433.605 239.518L486.47 196.561C495.03 189.606 500 179.163 500 168.133V36.63C500 16.3998 483.6 0 463.37 0H309.085C299.915 0 291.079 3.43948 284.322 9.63886L225.996 63.1509C206.922 80.6511 176.207 73.3828 166.998 49.1898L157.258 23.5999C151.85 9.39116 138.227 0 123.024 0Z" fill="#F4EFE5"/>
</svg>
